<svg width="1682" height="1225" viewBox="0 0 1682 1225" fill="none" xmlns="http://www.w3.org/2000/svg">
<path d="M1346.94 825.251C1424.59 847.434 1475.61 936.165 1475.61 936.165C1059.64 916.565 848.921 1213.42 841.371 1224.25C841.241 1224.46 841.171 1224.56 841.171 1224.56L840.961 1224.24L840.751 1224.56C840.751 1224.56 840.681 1224.46 840.541 1224.25C832.991 1213.42 622.281 916.565 206.308 936.165C206.308 936.165 257.327 847.434 334.974 825.251C334.974 825.251 277.287 816.375 206.308 865.171C206.308 865.171 241.799 691.673 370.462 625.361C370.462 625.361 319.568 522.745 245.167 389.746C245.139 389.719 245.126 389.705 245.126 389.705C176.314 266.727 87.391 117.786 0 0.0270996C0.014 0.0270996 0.0419927 0.042099 0.0549927 0.042099C0.0959927 0.056099 0.123985 0.0550994 0.165985 0.0690994C0.234985 0.0830994 0.303979 0.111099 0.371979 0.125099C0.606979 0.194099 0.965998 0.277101 1.435 0.414101C1.602 0.455101 1.76698 0.497101 1.93198 0.553101C24.35 6.6811 238.334 67.8861 450.33 227.401C674.381 395.999 743.151 398.222 840.751 398.222H841.171C938.771 398.222 1007.54 395.999 1231.59 227.401C1443.58 67.8861 1657.57 6.6811 1679.99 0.553101C1680.15 0.497101 1680.32 0.455101 1680.48 0.414101C1680.95 0.277101 1681.31 0.194099 1681.55 0.125099C1681.62 0.111099 1681.68 0.0830994 1681.75 0.0690994C1681.79 0.0550994 1681.82 0.056099 1681.86 0.042099C1681.88 0.042099 1681.9 0.0270996 1681.92 0.0270996C1594.53 117.786 1505.6 266.727 1436.79 389.705L1436.75 389.746C1362.35 522.745 1311.46 625.361 1311.46 625.361C1440.12 691.673 1475.61 865.171 1475.61 865.171C1404.63 816.375 1346.94 825.251 1346.94 825.251Z" fill="#FDDD00"/>
<path d="M1475.61 936.165C1059.64 916.565 848.921 1213.41 841.371 1224.24C841.101 1224.23 840.961 1224.23 840.961 1224.23C840.961 1224.23 840.821 1224.23 840.541 1224.24C832.991 1213.41 622.281 916.565 206.309 936.165C206.309 936.165 257.327 847.434 334.973 825.251C334.973 825.251 277.287 816.375 206.309 865.172C206.309 865.172 241.799 691.674 370.462 625.36C370.462 625.36 455.506 578.47 479.539 590.494C503.585 602.502 669.421 883.724 669.421 883.724C669.421 883.724 709.081 913.805 753.551 943.815C801.741 976.335 840.961 977.465 840.961 977.465C840.961 977.465 880.181 976.335 928.361 943.815C972.841 913.805 1012.5 883.724 1012.5 883.724C1012.5 883.724 1178.33 602.502 1202.38 590.494C1226.41 578.47 1311.46 625.36 1311.46 625.36C1440.12 691.674 1475.61 865.172 1475.61 865.172C1404.63 816.375 1346.94 825.251 1346.94 825.251C1424.59 847.434 1475.61 936.165 1475.61 936.165Z" fill="white"/>
<path d="M1310.93 446.659C1310.93 446.659 1310.93 446.673 1310.92 446.687C1310.59 447.681 1300.92 475.454 1218.25 682.135C1129.76 903.395 972.841 913.805 972.841 913.805C998.171 871.646 1015.31 799.646 1089.59 651.077C1173.89 482.479 1310.93 446.659 1310.93 446.659Z" fill="#1A273F"/>
<path d="M1681.89 0C1594.5 117.759 1505.58 266.7 1436.76 389.678C1436.76 389.678 1436.75 389.691 1436.72 389.719C1435.01 391.527 1379.85 449.627 1358.02 475.826C1358.02 475.826 1384.63 327.202 1428.99 280.615C1428.99 280.615 1384.63 293.922 1340.26 340.508C1340.26 340.508 1471 61.33 1681.52 0.0960007C1681.59 0.0830007 1681.66 0.0559998 1681.73 0.0419998C1681.78 0.0279998 1681.84 0.014 1681.89 0Z" fill="#FFA133"/>
<path d="M370.987 446.659C370.987 446.659 370.987 446.673 371 446.687C371.332 447.681 380.995 475.454 463.664 682.135C552.161 903.395 709.081 913.805 709.081 913.805C683.751 871.646 666.601 799.646 592.331 651.077C508.03 482.479 370.987 446.659 370.987 446.659Z" fill="#1A273F"/>
<path d="M1310.92 446.686C1310.59 447.681 1300.92 475.453 1218.25 682.136C1129.76 903.395 972.841 913.805 972.841 913.805C972.841 913.805 1064.79 898.805 1164.75 680.23C1215.75 568.717 1309.28 448.481 1310.92 446.686Z" fill="#58D2FF"/>
<path d="M0.027832 0C87.4178 117.759 176.341 266.7 245.153 389.678C245.153 389.678 245.166 389.691 245.194 389.719C246.905 391.527 302.065 449.627 323.902 475.826C323.902 475.826 297.289 327.202 252.924 280.615C252.924 280.615 297.289 293.922 341.654 340.508C341.654 340.508 210.92 61.33 0.399841 0.0960007C0.331841 0.0830007 0.261841 0.0559998 0.192841 0.0419998C0.137841 0.0279998 0.081832 0.014 0.027832 0Z" fill="#FFA133"/>
<path d="M371 446.686C371.332 447.681 380.995 475.453 463.664 682.136C552.161 903.395 709.081 913.805 709.081 913.805C709.081 913.805 617.131 898.805 517.167 680.23C466.168 568.717 372.643 448.481 371 446.686Z" fill="#58D2FF"/>
<path d="M907.911 1050.73C891.231 1100.45 840.961 1140.29 840.961 1140.29C840.961 1140.29 790.691 1100.45 774.011 1050.73C771.491 1043.24 778.321 1035.94 785.961 1037.98C800.661 1041.9 821.831 1048.91 833.441 1059.01C837.761 1062.77 844.151 1062.77 848.481 1059.01C860.081 1048.91 881.251 1041.9 895.961 1037.98C903.601 1035.94 910.421 1043.24 907.911 1050.73Z" fill="#09122A"/>
<g filter="url(#filter0_f_104_20)">
<path d="M1310.92 446.686C1310.59 447.681 1300.92 475.453 1218.25 682.136C1129.76 903.395 972.841 913.805 972.841 913.805C972.841 913.805 1064.79 898.805 1164.75 680.23C1215.75 568.717 1309.28 448.481 1310.92 446.686Z" fill="#58D2FF"/>
</g>
<g filter="url(#filter1_f_104_20)">
<path d="M371 446.686C371.332 447.681 380.995 475.453 463.664 682.136C552.161 903.395 709.081 913.805 709.081 913.805C709.081 913.805 617.131 898.805 517.167 680.23C466.168 568.717 372.643 448.481 371 446.686Z" fill="#58D2FF"/>
</g>
<g opacity="0.5" filter="url(#filter2_f_104_20)">
<path d="M1310.92 446.686C1310.59 447.681 1300.92 475.453 1218.25 682.136C1129.76 903.395 972.841 913.805 972.841 913.805C972.841 913.805 1064.79 898.805 1164.75 680.23C1215.75 568.717 1309.28 448.481 1310.92 446.686Z" fill="#58D2FF"/>
</g>
<g opacity="0.5" filter="url(#filter3_f_104_20)">
<path d="M371 446.686C371.332 447.681 380.995 475.453 463.664 682.136C552.161 903.395 709.081 913.805 709.081 913.805C709.081 913.805 617.131 898.805 517.167 680.23C466.168 568.717 372.643 448.481 371 446.686Z" fill="#58D2FF"/>
</g>
<defs>
<filter id="filter0_f_104_20" x="862.841" y="336.686" width="558.08" height="687.119" filterUnits="userSpaceOnUse" color-interpolation-filters="sRGB">
<feFlood flood-opacity="0" result="BackgroundImageFix"/>
<feBlend mode="normal" in="SourceGraphic" in2="BackgroundImageFix" result="shape"/>
<feGaussianBlur stdDeviation="55" result="effect1_foregroundBlur_104_20"/>
</filter>
<filter id="filter1_f_104_20" x="261" y="336.686" width="558.081" height="687.119" filterUnits="userSpaceOnUse" color-interpolation-filters="sRGB">
<feFlood flood-opacity="0" result="BackgroundImageFix"/>
<feBlend mode="normal" in="SourceGraphic" in2="BackgroundImageFix" result="shape"/>
<feGaussianBlur stdDeviation="55" result="effect1_foregroundBlur_104_20"/>
</filter>
<filter id="filter2_f_104_20" x="862.841" y="336.686" width="558.08" height="687.119" filterUnits="userSpaceOnUse" color-interpolation-filters="sRGB">
<feFlood flood-opacity="0" result="BackgroundImageFix"/>
<feBlend mode="normal" in="SourceGraphic" in2="BackgroundImageFix" result="shape"/>
<feGaussianBlur stdDeviation="55" result="effect1_foregroundBlur_104_20"/>
</filter>
<filter id="filter3_f_104_20" x="261" y="336.686" width="558.081" height="687.119" filterUnits="userSpaceOnUse" color-interpolation-filters="sRGB">
<feFlood flood-opacity="0" result="BackgroundImageFix"/>
<feBlend mode="normal" in="SourceGraphic" in2="BackgroundImageFix" result="shape"/>
<feGaussianBlur stdDeviation="55" result="effect1_foregroundBlur_104_20"/>
</filter>
</defs>
</svg>
